<?xml version="1.0" encoding="UTF-8"?><svg xmlns="http://www.w3.org/2000/svg" viewBox="0 0 1289.27 732.34"><defs><style>.g{fill:#1da1f2;}</style></defs><g id="a"/><g id="b"><g id="c"><g id="d"><g id="e"><g id="f"><path class="g" d="M585.57,386.39c5.91-6.2,11.46-12.8,16.73-19.8l.06,.06,29.47-39.14,11.99-15.92,34.11-45.22,23.22-30.8,45.98-61.09,22.29-29.59,40.18-53.33h388.12L1289.27,0H763.97l-16.85,22.41-22.64,30.05-29.47,39.08-26.06,34.63h-.06l-29.47,39.14c-13.26-45.98-41-88.19-82.16-119.22C515.97,15,467.57-.06,419.57,0H0L68.96,91.54H419.57c28.78-.06,57.85,8.97,82.63,27.62,60.57,45.69,72.67,131.79,27.04,192.35-27.04,35.84-68.15,54.66-109.84,54.66h-143.6l4.98,6.54,.17,.29,63.81,84.71,137,181.76,12.62,16.73,57.27,76.08,.06,.06,57.32-76.14,287.49-381.58h170.7l68.9-91.54h-285.23l-23.97,31.79v.06l-44.93,59.7-55.59,73.71h-.06l-109.67,145.51-.52,.75-.52,.64-63.98,84.94-24.44-32.54-67.75-89.92-2.37-3.13c35.67-5.91,70.06-20.27,99.77-42.56,10.19-7.64,19.8-16.21,28.72-25.65h-.01Z"/><path class="g" d="M465.31,228.89c0-25.3-20.5-45.8-45.74-45.8H137.93l68.9,91.54h212.74c25.25,0,45.74-20.5,45.74-45.74Z"/></g></g></g></g></g></svg>