<?xml version="1.0" encoding="UTF-8"?>
<svg xmlns="http://www.w3.org/2000/svg" width="221.355" height="170.443" viewBox="0 0 221.355 170.443">
  <g id="a" data-name="Layer 1"/>
  <g id="b" data-name="Layer 2">
    <g id="c" data-name="Icon">
      <g>
        <rect x="150.382" y="0" width="12.501" height="12.436"/>
        <rect x="58.457" y="0" width="12.484" height="12.436"/>
        <rect x="41.889" y="158.007" width="12.501" height="12.436"/>
        <path d="M175.384,45.782v-8.576h-8.257v-8.079h-16.739V12.439h-12.495V29.128h-54.443V12.439h-12.501V29.128h-16.722v8.079h-8.272v8.574l-20.953,.016v12.438h12.501v33.342h16.722v16.69h-12.337v12.432h12.501v-12.432h12.32v-16.69h16.738v9.668h54.449v-9.668h16.73v16.69h12.339v12.432h12.486v-12.432h-12.324v-16.69h16.724v-.252h-.174l.174-33.09h12.501v-12.438l-20.968-.014Zm-79.436,12.467h-12.501v-12.469h12.501v12.469Zm41.944,0h-12.495v-12.469h12.495v12.469Z"/>
        <rect x="196.352" y="58.233" width="12.501" height="34.664"/>
        <rect x="208.854" y="92.897" width="12.501" height="12.436"/>
        <rect x="12.501" y="58.233" width="12.501" height="34.664"/>
        <rect y="92.897" width="12.501" height="12.436"/>
        <rect x="16.921" y="158.007" width="12.484" height="12.436"/>
        <rect x="29.405" y="120.697" width="12.484" height="37.309"/>
        <polygon points="166.958 158.007 166.958 170.443 179.459 170.443 179.459 158.007 191.935 158.007 191.935 120.697 179.451 120.697 179.451 158.007 166.958 158.007"/>
        <rect x="191.935" y="158.007" width="12.484" height="12.436"/>
      </g>
    </g>
  </g>
</svg>