<?xml version="1.0" encoding="UTF-8"?><svg xmlns="http://www.w3.org/2000/svg" viewBox="0 0 139.78 159.75"><defs><style>.e{fill:#006a82;}.f{fill:#ff1a5c;}.g{fill:#4500b2;}.h{fill:#0ae3e8;}</style></defs><g id="a"/><g id="b"><g id="c"><g id="d"><rect class="g" x="129.8" y="29.95" width="9.98" height="9.98"/><rect class="g" x="129.8" y="19.97" width="9.98" height="9.98"/><rect class="g" x="119.81" y="49.92" width="9.98" height="9.98"/><rect class="g" x="119.81" y="39.94" width="9.98" height="9.98"/><rect class="e" x="119.81" y="29.95" width="9.98" height="9.98"/><rect class="e" x="119.81" y="19.97" width="9.98" height="9.98"/><rect class="g" x="119.81" y="9.98" width="9.98" height="9.98"/><rect class="g" x="109.83" y="69.89" width="9.98" height="9.98"/><rect class="g" x="109.83" y="59.91" width="9.98" height="9.98"/><rect class="e" x="109.83" y="49.92" width="9.98" height="9.98"/><rect class="e" x="109.83" y="39.94" width="9.98" height="9.98"/><rect class="e" x="109.83" y="29.95" width="9.98" height="9.98"/><rect class="e" x="109.83" y="19.97" width="9.98" height="9.98"/><rect class="e" x="109.83" y="9.98" width="9.98" height="9.98"/><rect class="g" x="99.84" y="89.86" width="9.98" height="9.98"/><rect class="g" x="99.84" y="79.88" width="9.98" height="9.98"/><rect class="e" x="99.84" y="69.89" width="9.98" height="9.98"/><rect class="e" x="99.84" y="59.91" width="9.98" height="9.98"/><rect class="h" x="99.84" y="49.92" width="9.98" height="9.98"/><rect class="h" x="99.84" y="39.94" width="9.98" height="9.98"/><rect class="h" x="99.84" y="29.95" width="9.98" height="9.98"/><rect class="e" x="99.84" y="19.97" width="9.98" height="9.98"/><rect class="e" x="99.84" y="9.98" width="9.98" height="9.98"/><rect class="g" x="89.86" y="109.83" width="9.98" height="9.98"/><rect class="g" x="89.86" y="99.84" width="9.98" height="9.98"/><rect class="e" x="89.86" y="89.86" width="9.98" height="9.98"/><rect class="e" x="89.86" y="79.88" width="9.98" height="9.98"/><rect class="h" x="89.86" y="69.89" width="9.98" height="9.98"/><rect class="h" x="89.86" y="59.91" width="9.98" height="9.98"/><rect class="h" x="89.86" y="49.92" width="9.98" height="9.98"/><rect class="e" x="89.86" y="39.94" width="9.98" height="9.98"/><rect class="f" x="89.86" y="29.95" width="9.98" height="9.98"/><rect class="f" x="89.86" y="19.97" width="9.98" height="9.98"/><rect class="e" x="89.86" y="9.98" width="9.98" height="9.98"/><rect class="e" x="89.86" width="9.98" height="9.98"/><rect class="g" x="79.87" y="129.8" width="9.98" height="9.98"/><rect class="g" x="79.87" y="119.81" width="9.98" height="9.98"/><rect class="e" x="79.87" y="109.83" width="9.98" height="9.98"/><rect class="e" x="79.87" y="99.84" width="9.98" height="9.98"/><rect class="h" x="79.87" y="89.86" width="9.98" height="9.98"/><rect class="f" x="79.87" y="79.88" width="9.98" height="9.98"/><rect class="f" x="79.87" y="69.89" width="9.98" height="9.98"/><rect class="h" x="79.87" y="59.91" width="9.98" height="9.98"/><rect class="h" x="79.87" y="49.92" width="9.98" height="9.98"/><rect class="h" x="79.87" y="39.94" width="9.98" height="9.98"/><rect class="f" x="79.87" y="29.95" width="9.98" height="9.98"/><rect class="f" x="79.87" y="19.97" width="9.98" height="9.98"/><rect class="e" x="79.87" y="9.98" width="9.98" height="9.98"/><rect class="e" x="79.87" width="9.98" height="9.98"/><rect class="g" x="69.89" y="139.78" width="9.98" height="9.98"/><rect class="e" x="69.89" y="129.8" width="9.98" height="9.98"/><rect class="e" x="69.89" y="119.81" width="9.98" height="9.98"/><rect class="h" x="69.89" y="109.83" width="9.98" height="9.98"/><rect class="h" x="69.89" y="99.84" width="9.98" height="9.98"/><rect class="h" x="69.89" y="89.86" width="9.98" height="9.98"/><rect class="f" x="69.89" y="79.88" width="9.98" height="9.98"/><rect class="f" x="69.89" y="69.89" width="9.98" height="9.98"/><rect class="h" x="69.89" y="59.91" width="9.98" height="9.98"/><rect class="h" x="69.89" y="49.92" width="9.98" height="9.98"/><rect class="h" x="69.89" y="39.94" width="9.98" height="9.98"/><rect class="h" x="69.89" y="29.95" width="9.98" height="9.98"/><rect class="h" x="69.89" y="19.97" width="9.98" height="9.98"/><rect class="e" x="69.89" y="9.98" width="9.98" height="9.98"/><rect class="e" x="69.89" width="9.98" height="9.98"/><rect class="g" x="59.91" y="149.77" width="9.98" height="9.98"/><rect class="e" x="59.91" y="139.78" width="9.98" height="9.98"/><rect class="h" x="59.91" y="129.8" width="9.98" height="9.98"/><rect class="h" x="59.91" y="119.81" width="9.98" height="9.98"/><rect class="h" x="59.91" y="109.83" width="9.98" height="9.98"/><rect class="e" x="59.91" y="99.84" width="9.98" height="9.98"/><rect class="h" x="59.91" y="89.86" width="9.98" height="9.98"/><rect class="h" x="59.91" y="79.88" width="9.98" height="9.98"/><rect class="h" x="59.91" y="69.89" width="9.98" height="9.98"/><rect class="h" x="59.91" y="59.91" width="9.98" height="9.98"/><rect class="h" x="59.91" y="49.92" width="9.98" height="9.98"/><rect class="h" x="59.91" y="39.94" width="9.98" height="9.98"/><rect class="h" x="59.91" y="29.95" width="9.98" height="9.98"/><rect class="h" x="59.91" y="19.97" width="9.98" height="9.98"/><rect class="e" x="59.91" y="9.98" width="9.98" height="9.98"/><rect class="e" x="59.91" width="9.98" height="9.98"/><rect class="e" x="49.92" y="129.8" width="9.98" height="9.98"/><rect class="e" x="49.92" y="119.81" width="9.98" height="9.98"/><rect class="h" x="49.92" y="109.83" width="9.98" height="9.98"/><rect class="h" x="49.92" y="99.84" width="9.98" height="9.98"/><rect class="h" x="49.92" y="89.86" width="9.98" height="9.98"/><rect class="h" x="49.92" y="79.88" width="9.98" height="9.98"/><rect class="h" x="49.92" y="69.89" width="9.98" height="9.98"/><rect class="e" x="49.92" y="59.91" width="9.98" height="9.98"/><rect class="h" x="49.92" y="49.92" width="9.98" height="9.98"/><rect class="h" x="49.92" y="39.94" width="9.98" height="9.98"/><rect class="h" x="49.92" y="29.95" width="9.98" height="9.98"/><rect class="h" x="49.92" y="19.97" width="9.98" height="9.98"/><rect class="e" x="49.92" y="9.98" width="9.98" height="9.98"/><rect class="e" x="49.92" width="9.98" height="9.98"/><rect class="e" x="39.94" y="109.83" width="9.98" height="9.98"/><rect class="e" x="39.94" y="99.84" width="9.98" height="9.98"/><rect class="h" x="39.94" y="89.86" width="9.98" height="9.98"/><rect class="h" x="39.94" y="79.88" width="9.98" height="9.98"/><rect class="h" x="39.94" y="69.89" width="9.98" height="9.98"/><rect class="h" x="39.94" y="59.91" width="9.98" height="9.98"/><rect class="f" x="39.94" y="49.92" width="9.98" height="9.98"/><rect class="f" x="39.94" y="39.94" width="9.98" height="9.98"/><rect class="h" x="39.94" y="29.95" width="9.98" height="9.98"/><rect class="h" x="39.94" y="19.97" width="9.98" height="9.98"/><rect class="e" x="39.94" y="9.98" width="9.98" height="9.98"/><rect class="e" x="39.94" width="9.98" height="9.98"/><rect class="e" x="29.95" y="89.86" width="9.98" height="9.98"/><rect class="e" x="29.95" y="79.88" width="9.98" height="9.98"/><rect class="h" x="29.95" y="69.89" width="9.98" height="9.98"/><rect class="h" x="29.95" y="59.91" width="9.98" height="9.98"/><rect class="f" x="29.95" y="49.92" width="9.98" height="9.98"/><rect class="f" x="29.95" y="39.94" width="9.98" height="9.98"/><rect class="h" x="29.95" y="29.95" width="9.98" height="9.98"/><rect class="h" x="29.95" y="19.97" width="9.98" height="9.98"/><rect class="e" x="29.95" y="9.98" width="9.98" height="9.98"/><rect class="e" x="29.95" width="9.98" height="9.98"/><rect class="e" x="19.97" y="69.89" width="9.98" height="9.98"/><rect class="e" x="19.97" y="59.91" width="9.98" height="9.98"/><rect class="h" x="19.97" y="49.92" width="9.98" height="9.98"/><rect class="h" x="19.97" y="39.94" width="9.98" height="9.98"/><rect class="h" x="19.97" y="29.95" width="9.98" height="9.98"/><rect class="e" x="19.97" y="19.97" width="9.98" height="9.98"/><rect class="e" x="19.97" y="9.98" width="9.98" height="9.98"/><rect class="e" x="9.98" y="49.92" width="9.98" height="9.98"/><rect class="e" x="9.98" y="39.94" width="9.98" height="9.98"/><rect class="e" x="9.98" y="29.95" width="9.98" height="9.98"/><rect class="e" x="9.98" y="19.97" width="9.98" height="9.98"/><rect class="e" x="9.98" y="9.98" width="9.98" height="9.98"/><rect class="e" y="29.95" width="9.98" height="9.98"/><rect class="e" y="19.97" width="9.98" height="9.98"/></g></g></g></svg>