<?xml version="1.0" encoding="UTF-8"?><svg xmlns="http://www.w3.org/2000/svg" viewBox="0 0 159.48 159.48"><defs><style>.e{fill:#006a82;}.f{fill:#ff1a5c;}.g{fill:#4500b2;}.h{fill:#0ae3e8;}</style></defs><g id="a"/><g id="b"><g id="c"><g id="d"><rect class="h" x="109.64" y="129.57" width="9.97" height="9.97"/><rect class="h" x="99.67" y="129.57" width="9.97" height="9.97"/><rect class="h" x="99.67" y="139.54" width="9.97" height="9.97"/><rect class="h" x="89.7" y="139.54" width="9.97" height="9.97"/><rect class="h" x="79.74" y="139.54" width="9.97" height="9.97"/><rect class="h" x="49.84" y="139.54" width="9.97" height="9.97"/><rect class="h" x="59.8" y="139.54" width="9.97" height="9.97"/><rect class="h" x="69.77" y="139.54" width="9.97" height="9.97"/><rect class="h" x="49.84" y="129.57" width="9.97" height="9.97"/><rect class="h" x="39.87" y="129.57" width="9.97" height="9.97"/><rect class="h" x="109.64" y="119.61" width="9.97" height="9.97"/><rect class="h" x="119.61" y="119.61" width="9.97" height="9.97"/><rect class="h" x="119.61" y="109.64" width="9.97" height="9.97"/><rect class="h" x="109.64" y="109.64" width="9.97" height="9.97"/><rect class="h" x="99.67" y="109.64" width="9.97" height="9.97"/><rect class="h" x="99.67" y="119.61" width="9.97" height="9.97"/><rect class="h" x="89.7" y="119.61" width="9.97" height="9.97"/><rect class="h" x="79.74" y="109.64" width="9.97" height="9.97"/><rect class="h" x="89.7" y="109.64" width="9.97" height="9.97"/><rect class="h" x="79.74" y="119.61" width="9.97" height="9.97"/><rect class="h" x="49.84" y="119.61" width="9.97" height="9.97"/><rect class="h" x="69.77" y="119.61" width="9.97" height="9.97"/><rect class="h" x="69.77" y="109.64" width="9.97" height="9.97"/><rect class="h" x="49.84" y="109.64" width="9.97" height="9.97"/><rect class="h" x="59.8" y="109.64" width="9.97" height="9.97"/><rect class="h" x="59.8" y="119.61" width="9.97" height="9.97"/><rect class="h" x="29.9" y="109.64" width="9.97" height="9.97"/><rect class="h" x="39.87" y="109.64" width="9.97" height="9.97"/><rect class="h" x="29.9" y="119.61" width="9.97" height="9.97"/><rect class="h" x="39.87" y="119.61" width="9.97" height="9.97"/><rect class="e" x="89.7" y="129.57" width="9.97" height="9.97"/><rect class="e" x="79.74" y="129.57" width="9.97" height="9.97"/><rect class="e" x="69.77" y="129.57" width="9.97" height="9.97"/><rect class="e" x="59.8" y="129.57" width="9.97" height="9.97"/><rect class="h" x="29.9" y="29.9" width="9.97" height="9.97"/><rect class="h" x="109.64" y="29.9" width="9.97" height="9.97"/><rect class="h" x="119.61" y="29.9" width="9.97" height="9.97"/><rect class="h" x="89.7" y="29.9" width="9.97" height="9.97"/><rect class="h" x="99.67" y="29.9" width="9.97" height="9.97"/><rect class="h" x="79.74" y="29.9" width="9.97" height="9.97"/><rect class="h" x="69.77" y="29.9" width="9.97" height="9.97"/><rect class="h" x="49.84" y="29.9" width="9.97" height="9.97"/><rect class="h" x="59.8" y="29.9" width="9.97" height="9.97"/><rect class="h" x="39.87" y="29.9" width="9.97" height="9.97"/><rect class="h" x="99.67" y="19.93" width="9.97" height="9.97"/><rect class="h" x="89.7" y="19.93" width="9.97" height="9.97"/><rect class="h" x="79.74" y="19.93" width="9.97" height="9.97"/><rect class="h" x="69.77" y="19.93" width="9.97" height="9.97"/><rect class="h" x="49.84" y="19.93" width="9.97" height="9.97"/><rect class="h" x="59.8" y="19.93" width="9.97" height="9.97"/><rect class="g" x="19.93" y="69.77" width="9.97" height="9.97"/><rect class="g" x="19.93" y="79.74" width="9.97" height="9.97"/><rect class="g" x="9.97" y="69.77" width="9.97" height="9.97"/><rect class="g" x="9.97" y="79.74" width="9.97" height="9.97"/><rect class="g" x="109.64" y="79.74" width="9.97" height="9.97"/><rect class="g" x="109.64" y="69.77" width="9.97" height="9.97"/><rect class="g" x="119.61" y="69.77" width="9.97" height="9.97"/><rect class="g" x="79.74" y="79.74" width="9.97" height="9.97"/><rect class="g" x="99.67" y="79.74" width="9.97" height="9.97"/><rect class="g" x="79.74" y="69.77" width="9.97" height="9.97"/><rect class="g" x="89.7" y="69.77" width="9.97" height="9.97"/><rect class="g" x="99.67" y="69.77" width="9.97" height="9.97"/><rect class="g" x="89.7" y="79.74" width="9.97" height="9.97"/><rect class="g" x="69.77" y="79.74" width="9.97" height="9.97"/><rect class="g" x="59.8" y="79.74" width="9.97" height="9.97"/><rect class="g" x="49.84" y="69.77" width="9.97" height="9.97"/><rect class="g" x="69.77" y="69.77" width="9.97" height="9.97"/><rect class="g" x="49.84" y="79.74" width="9.97" height="9.97"/><rect class="g" x="59.8" y="69.77" width="9.97" height="9.97"/><rect class="g" x="29.9" y="69.77" width="9.97" height="9.97"/><rect class="g" x="39.87" y="79.74" width="9.97" height="9.97"/><rect class="g" x="29.9" y="79.74" width="9.97" height="9.97"/><rect class="g" x="39.87" y="69.77" width="9.97" height="9.97"/><rect class="g" x="139.54" y="69.77" width="9.97" height="9.97"/><rect class="g" x="129.57" y="69.77" width="9.97" height="9.97"/><rect class="g" x="129.57" y="79.74" width="9.97" height="9.97"/><rect class="f" x="119.61" y="79.74" width="9.97" height="9.97"/><rect class="g" x="149.51" y="89.7" width="9.97" height="9.97"/><rect class="g" x="149.51" y="79.74" width="9.97" height="9.97"/><rect class="g" x="149.51" y="69.77" width="9.97" height="9.97"/><rect class="g" x="149.51" y="59.8" width="9.97" height="9.97"/><rect class="g" x="149.51" y="49.84" width="9.97" height="9.97"/><rect class="g" x="139.54" y="99.67" width="9.97" height="9.97"/><rect class="g" x="139.54" y="89.7" width="9.97" height="9.97"/><rect class="f" x="139.54" y="79.74" width="9.97" height="9.97"/><rect class="f" x="139.54" y="59.8" width="9.97" height="9.97"/><rect class="g" x="139.54" y="49.84" width="9.97" height="9.97"/><rect class="g" x="139.54" y="39.87" width="9.97" height="9.97"/><rect class="e" x="129.57" y="119.61" width="9.97" height="9.97"/><rect class="e" x="129.57" y="109.64" width="9.97" height="9.97"/><rect class="g" x="129.57" y="99.67" width="9.97" height="9.97"/><rect class="g" x="129.57" y="89.7" width="9.97" height="9.97"/><rect class="f" x="129.57" y="59.8" width="9.97" height="9.97"/><rect class="g" x="129.57" y="49.84" width="9.97" height="9.97"/><rect class="g" x="129.57" y="39.87" width="9.97" height="9.97"/><rect class="e" x="129.57" y="29.9" width="9.97" height="9.97"/><rect class="e" x="129.57" y="19.93" width="9.97" height="9.97"/><rect class="e" x="119.61" y="129.57" width="9.97" height="9.97"/><rect class="g" x="119.61" y="99.67" width="9.97" height="9.97"/><rect class="g" x="119.61" y="89.7" width="9.97" height="9.97"/><rect class="f" x="119.61" y="59.8" width="9.97" height="9.97"/><rect class="g" x="119.61" y="49.84" width="9.97" height="9.97"/><rect class="g" x="119.61" y="39.87" width="9.97" height="9.97"/><rect class="e" x="119.61" y="19.93" width="9.97" height="9.97"/><rect class="e" x="119.61" y="9.97" width="9.97" height="9.97"/><rect class="e" x="109.64" y="139.54" width="9.97" height="9.97"/><rect class="g" x="109.64" y="99.67" width="9.97" height="9.97"/><rect class="g" x="109.64" y="89.7" width="9.97" height="9.97"/><rect class="f" x="109.64" y="59.8" width="9.97" height="9.97"/><rect class="g" x="109.64" y="49.84" width="9.97" height="9.97"/><rect class="g" x="109.64" y="39.87" width="9.97" height="9.97"/><rect class="e" x="109.64" y="19.93" width="9.97" height="9.97"/><rect class="e" x="109.64" y="9.97" width="9.97" height="9.97"/><rect class="e" x="109.64" width="9.97" height="9.97"/><rect class="e" x="99.67" y="149.51" width="9.97" height="9.97"/><rect class="g" x="99.67" y="99.67" width="9.97" height="9.97"/><rect class="g" x="99.67" y="89.7" width="9.97" height="9.97"/><rect class="f" x="99.67" y="59.8" width="9.97" height="9.97"/><rect class="g" x="99.67" y="49.84" width="9.97" height="9.97"/><rect class="g" x="99.67" y="39.87" width="9.97" height="9.97"/><rect class="e" x="99.67" y="9.97" width="9.97" height="9.97"/><rect class="e" x="99.67" width="9.97" height="9.97"/><rect class="e" x="89.7" y="149.51" width="9.97" height="9.97"/><rect class="g" x="89.7" y="99.67" width="9.97" height="9.97"/><rect class="g" x="89.7" y="89.7" width="9.97" height="9.97"/><rect class="f" x="89.7" y="59.8" width="9.97" height="9.97"/><rect class="g" x="89.7" y="49.84" width="9.97" height="9.97"/><rect class="g" x="89.7" y="39.87" width="9.97" height="9.97"/><rect class="e" x="89.7" y="9.97" width="9.97" height="9.97"/><rect class="e" x="89.7" width="9.97" height="9.97"/><rect class="e" x="79.74" y="149.51" width="9.97" height="9.97"/><rect class="g" x="79.74" y="99.67" width="9.97" height="9.97"/><rect class="g" x="79.74" y="89.7" width="9.97" height="9.97"/><rect class="f" x="79.74" y="59.8" width="9.97" height="9.97"/><rect class="g" x="79.74" y="49.84" width="9.97" height="9.97"/><rect class="g" x="79.74" y="39.87" width="9.97" height="9.97"/><rect class="e" x="79.74" y="9.97" width="9.97" height="9.97"/><rect class="e" x="79.74" width="9.97" height="9.97"/><rect class="e" x="69.77" y="149.51" width="9.97" height="9.97"/><rect class="g" x="69.77" y="99.67" width="9.97" height="9.97"/><rect class="g" x="69.77" y="89.7" width="9.97" height="9.97"/><rect class="f" x="69.77" y="59.8" width="9.97" height="9.97"/><rect class="g" x="69.77" y="49.84" width="9.97" height="9.97"/><rect class="g" x="69.77" y="39.87" width="9.97" height="9.97"/><rect class="e" x="69.77" y="9.97" width="9.97" height="9.97"/><rect class="e" x="69.77" width="9.97" height="9.97"/><rect class="e" x="59.8" y="149.51" width="9.97" height="9.97"/><rect class="g" x="59.8" y="99.67" width="9.97" height="9.97"/><rect class="g" x="59.8" y="89.7" width="9.97" height="9.97"/><rect class="f" x="59.8" y="59.8" width="9.97" height="9.97"/><rect class="g" x="59.8" y="49.84" width="9.97" height="9.97"/><rect class="g" x="59.8" y="39.87" width="9.97" height="9.97"/><rect class="e" x="59.8" y="9.97" width="9.97" height="9.97"/><rect class="e" x="59.8" width="9.97" height="9.97"/><rect class="e" x="49.84" y="149.51" width="9.97" height="9.97"/><rect class="g" x="49.84" y="99.67" width="9.97" height="9.97"/><rect class="g" x="49.84" y="89.7" width="9.97" height="9.97"/><rect class="f" x="49.84" y="59.8" width="9.97" height="9.97"/><rect class="g" x="49.84" y="49.84" width="9.97" height="9.97"/><rect class="g" x="49.84" y="39.87" width="9.97" height="9.97"/><rect class="e" x="49.84" y="9.97" width="9.97" height="9.97"/><rect class="e" x="49.84" width="9.97" height="9.97"/><rect class="e" x="39.87" y="139.54" width="9.97" height="9.97"/><rect class="g" x="39.87" y="99.67" width="9.97" height="9.97"/><rect class="g" x="39.87" y="89.7" width="9.97" height="9.97"/><rect class="f" x="39.87" y="59.8" width="9.97" height="9.97"/><rect class="g" x="39.87" y="49.84" width="9.97" height="9.97"/><rect class="g" x="39.87" y="39.87" width="9.97" height="9.97"/><rect class="e" x="39.87" y="19.93" width="9.97" height="9.97"/><rect class="e" x="39.87" y="9.97" width="9.97" height="9.97"/><rect class="e" x="39.87" width="9.97" height="9.97"/><rect class="e" x="29.9" y="129.57" width="9.97" height="9.97"/><rect class="g" x="29.9" y="99.67" width="9.97" height="9.97"/><rect class="g" x="29.9" y="89.7" width="9.97" height="9.97"/><rect class="f" x="29.9" y="59.8" width="9.97" height="9.97"/><rect class="g" x="29.9" y="49.84" width="9.97" height="9.97"/><rect class="g" x="29.9" y="39.87" width="9.97" height="9.97"/><rect class="e" x="29.9" y="19.93" width="9.97" height="9.97"/><rect class="e" x="29.9" y="9.97" width="9.97" height="9.97"/><rect class="e" x="19.93" y="119.61" width="9.97" height="9.97"/><rect class="e" x="19.93" y="109.64" width="9.97" height="9.97"/><rect class="g" x="19.93" y="99.67" width="9.97" height="9.97"/><rect class="g" x="19.93" y="89.7" width="9.97" height="9.97"/><rect class="f" x="19.93" y="59.8" width="9.97" height="9.97"/><rect class="g" x="19.93" y="49.84" width="9.97" height="9.97"/><rect class="g" x="19.93" y="39.87" width="9.97" height="9.97"/><rect class="e" x="19.93" y="29.9" width="9.97" height="9.97"/><rect class="e" x="19.93" y="19.93" width="9.97" height="9.97"/><rect class="g" x="9.97" y="99.67" width="9.97" height="9.97"/><rect class="g" x="9.97" y="89.7" width="9.97" height="9.97"/><rect class="f" x="9.97" y="59.8" width="9.97" height="9.97"/><rect class="g" x="9.97" y="49.84" width="9.97" height="9.97"/><rect class="g" x="9.97" y="39.87" width="9.97" height="9.97"/><rect class="g" y="89.7" width="9.97" height="9.97"/><rect class="g" y="79.74" width="9.97" height="9.97"/><rect class="g" y="69.77" width="9.97" height="9.97"/><rect class="g" y="59.8" width="9.97" height="9.97"/><rect class="g" y="49.84" width="9.97" height="9.97"/></g></g></g></svg>