<?xml version="1.0" encoding="utf-8"?>
<!-- Generator: Adobe Illustrator 22.1.0, SVG Export Plug-In . SVG Version: 6.00 Build 0)  -->
<svg version="1.1" xmlns="http://www.w3.org/2000/svg" xmlns:xlink="http://www.w3.org/1999/xlink" x="0px" y="0px"
	 viewBox="0 0 1400 1000" style="enable-background:new 0 0 1400 1000;" xml:space="preserve">
<style type="text/css">
	.st0{fill:#A7EDF9;}
	.st1{fill:url(#SVGID_1_);}
	.st2{fill:url(#SVGID_2_);}
	.st3{fill:url(#SVGID_3_);}
	.st4{fill:url(#SVGID_4_);}
	.st5{fill:url(#SVGID_5_);}
	.st6{fill:url(#SVGID_6_);}
	.st7{fill:#FFFFFF;}
	.st8{fill:url(#SVGID_7_);}
	.st9{fill:url(#SVGID_8_);}
	.st10{fill:url(#SVGID_9_);}
	.st11{fill:url(#SVGID_10_);}
	.st12{fill:url(#SVGID_11_);}
	.st13{opacity:0.2;fill:#FFFFFF;}
	.st14{fill:url(#SVGID_12_);}
	.st15{fill:url(#SVGID_13_);}
	.st16{opacity:0.18;}
	.st17{fill:url(#SVGID_14_);}
	.st18{fill:url(#SVGID_15_);}
	.st19{fill:url(#SVGID_16_);}
	.st20{fill:url(#SVGID_17_);}
	.st21{fill:url(#SVGID_18_);}
	.st22{fill:url(#SVGID_19_);}
</style>
<g id="BACKGROUND">
	<rect class="st0" width="1400" height="1000"/>
</g>
<g id="OBJECT">
	<linearGradient id="SVGID_1_" gradientUnits="userSpaceOnUse" x1="833.5788" y1="709.5019" x2="833.5788" y2="344.097">
		<stop  offset="0" style="stop-color:#A7EDF9"/>
		<stop  offset="0.1314" style="stop-color:#99E6F4"/>
		<stop  offset="0.3798" style="stop-color:#74D4E8"/>
		<stop  offset="0.7158" style="stop-color:#39B8D4"/>
		<stop  offset="1" style="stop-color:#029DC1"/>
	</linearGradient>
	<polygon class="st1" points="1126.9,636.8 1001,413.5 901,413.5 885,464.3 841,464.3 805,367 651,367 540.3,636.8 	"/>
	<linearGradient id="SVGID_2_" gradientUnits="userSpaceOnUse" x1="1132.535" y1="727.8442" x2="1132.535" y2="201.1127">
		<stop  offset="0" style="stop-color:#0195BB"/>
		<stop  offset="0.228" style="stop-color:#069BC1"/>
		<stop  offset="0.5342" style="stop-color:#16ACD1"/>
		<stop  offset="0.8832" style="stop-color:#2FC8EC"/>
		<stop  offset="1" style="stop-color:#39D3F7"/>
	</linearGradient>
	<polygon class="st2" points="1400,248.8 1400,649.8 865.1,649.8 872.8,628.9 905.3,517 936.6,501.1 987.4,439.1 1055,439.1 
		1096.1,384.6 1117.1,290.1 1173.1,289.2 1199.4,288.8 1237,191 1359.7,191 	"/>
	<g>
		<linearGradient id="SVGID_3_" gradientUnits="userSpaceOnUse" x1="1207.6949" y1="813" x2="1207.6951" y2="27.8733">
			<stop  offset="0" style="stop-color:#00AEDD"/>
			<stop  offset="0.1373" style="stop-color:#00AAD8"/>
			<stop  offset="0.3015" style="stop-color:#01A0C9"/>
			<stop  offset="0.4793" style="stop-color:#018FB1"/>
			<stop  offset="0.6668" style="stop-color:#027690"/>
			<stop  offset="0.86" style="stop-color:#045865"/>
			<stop  offset="1" style="stop-color:#053E41"/>
		</linearGradient>
		<polygon class="st3" points="1270.4,191 1232,323 1196,342 1156,522 1145,519 1173.1,289.2 1199.4,288.8 1237,191 		"/>
		<linearGradient id="SVGID_4_" gradientUnits="userSpaceOnUse" x1="1074.1638" y1="813" x2="1074.1638" y2="27.8733">
			<stop  offset="0" style="stop-color:#00AEDD"/>
			<stop  offset="0.1373" style="stop-color:#00AAD8"/>
			<stop  offset="0.3015" style="stop-color:#01A0C9"/>
			<stop  offset="0.4793" style="stop-color:#018FB1"/>
			<stop  offset="0.6668" style="stop-color:#027690"/>
			<stop  offset="0.86" style="stop-color:#045865"/>
			<stop  offset="1" style="stop-color:#053E41"/>
		</linearGradient>
		<path class="st4" d="M1071,607.7l-12.7-3.3l-6.2-165.2h2.8l41.1-54.5C1097.7,387.7,1071,607.7,1071,607.7z"/>
		<linearGradient id="SVGID_5_" gradientUnits="userSpaceOnUse" x1="931.715" y1="813" x2="931.715" y2="27.8733">
			<stop  offset="0" style="stop-color:#00AEDD"/>
			<stop  offset="0.1373" style="stop-color:#00AAD8"/>
			<stop  offset="0.3015" style="stop-color:#01A0C9"/>
			<stop  offset="0.4793" style="stop-color:#018FB1"/>
			<stop  offset="0.6668" style="stop-color:#027690"/>
			<stop  offset="0.86" style="stop-color:#045865"/>
			<stop  offset="1" style="stop-color:#053E41"/>
		</linearGradient>
		<polygon class="st5" points="998.4,439.1 997.5,447 976.2,649.8 974.6,665.1 956.6,662.1 956,649.8 949.1,516.6 886,649.8 
			865.1,649.8 872.8,628.9 905.3,517 936.6,501.1 987.4,439.1 		"/>
		<linearGradient id="SVGID_6_" gradientUnits="userSpaceOnUse" x1="1215.1802" y1="813" x2="1215.1802" y2="27.8733">
			<stop  offset="0" style="stop-color:#00AEDD"/>
			<stop  offset="0.1373" style="stop-color:#00AAD8"/>
			<stop  offset="0.3015" style="stop-color:#01A0C9"/>
			<stop  offset="0.4793" style="stop-color:#018FB1"/>
			<stop  offset="0.6668" style="stop-color:#027690"/>
			<stop  offset="0.86" style="stop-color:#045865"/>
			<stop  offset="1" style="stop-color:#053E41"/>
		</linearGradient>
		<path class="st6" d="M1400,498.7v-32l-86-45.7l8.5-230h-17.6c-0.3,50.9-1.4,231-1.4,231l-78.5,62l-59.9,92.6l-134.7,73.2H1400
			V524.7L1271,506l-2-21l41-36L1400,498.7z"/>
	</g>
	<circle class="st7" cx="473" cy="199" r="104"/>
	<linearGradient id="SVGID_7_" gradientUnits="userSpaceOnUse" x1="394.5501" y1="732.1678" x2="394.5501" y2="354.4969">
		<stop  offset="0" style="stop-color:#0195BB"/>
		<stop  offset="0.228" style="stop-color:#069BC1"/>
		<stop  offset="0.5342" style="stop-color:#16ACD1"/>
		<stop  offset="0.8832" style="stop-color:#2FC8EC"/>
		<stop  offset="1" style="stop-color:#39D3F7"/>
	</linearGradient>
	<polygon class="st8" points="789.1,649.8 0,649.8 0,401.2 50.7,382.2 64.1,337.8 90,332.8 113,231.5 247.4,231.5 251.6,407.1 
		263.6,407.1 263.6,231.5 310,231.5 327.8,334 346.4,351 391.9,392.4 391.9,445.2 461.6,514.9 545,414.9 605.3,414.9 640.5,475.2 
		678.2,477.8 	"/>
	<g>
		<linearGradient id="SVGID_8_" gradientUnits="userSpaceOnUse" x1="25.3251" y1="621" x2="25.3251" y2="170.7157">
			<stop  offset="0" style="stop-color:#00AEDD"/>
			<stop  offset="0.1213" style="stop-color:#00A8D5"/>
			<stop  offset="0.3107" style="stop-color:#0198BF"/>
			<stop  offset="0.5447" style="stop-color:#027E9A"/>
			<stop  offset="0.8116" style="stop-color:#045A69"/>
			<stop  offset="1" style="stop-color:#053E41"/>
		</linearGradient>
		<path class="st9" d="M33.8,431.3l16.8-49.1L0,401.2v22.5c20-5.2,29-8.6,29-8.6L33.8,431.3z"/>
		<linearGradient id="SVGID_9_" gradientUnits="userSpaceOnUse" x1="255.6176" y1="621" x2="255.6176" y2="170.7157">
			<stop  offset="0" style="stop-color:#00AEDD"/>
			<stop  offset="0.1213" style="stop-color:#00A8D5"/>
			<stop  offset="0.3107" style="stop-color:#0198BF"/>
			<stop  offset="0.5447" style="stop-color:#027E9A"/>
			<stop  offset="0.8116" style="stop-color:#045A69"/>
			<stop  offset="1" style="stop-color:#053E41"/>
		</linearGradient>
		<polygon class="st10" points="263.6,412.7 263.6,231.5 247.6,241.1 251.6,407.1 		"/>
		<linearGradient id="SVGID_10_" gradientUnits="userSpaceOnUse" x1="655.7351" y1="621" x2="655.7351" y2="170.7157">
			<stop  offset="0" style="stop-color:#00AEDD"/>
			<stop  offset="0.1213" style="stop-color:#00A8D5"/>
			<stop  offset="0.3107" style="stop-color:#0198BF"/>
			<stop  offset="0.5447" style="stop-color:#027E9A"/>
			<stop  offset="0.8116" style="stop-color:#045A69"/>
			<stop  offset="1" style="stop-color:#053E41"/>
		</linearGradient>
		<polygon class="st11" points="671,616.5 665.9,476.9 640.5,475.2 663,617 		"/>
		<linearGradient id="SVGID_11_" gradientUnits="userSpaceOnUse" x1="394.55" y1="621" x2="394.55" y2="170.7157">
			<stop  offset="0" style="stop-color:#00AEDD"/>
			<stop  offset="0.1213" style="stop-color:#00A8D5"/>
			<stop  offset="0.3107" style="stop-color:#0198BF"/>
			<stop  offset="0.5447" style="stop-color:#027E9A"/>
			<stop  offset="0.8116" style="stop-color:#045A69"/>
			<stop  offset="1" style="stop-color:#053E41"/>
		</linearGradient>
		<path class="st12" d="M780,635.7H669.7l-92.7-32l-22.7,8.2l6.2-196.9H545l-83.3,100l-4.7,85.6l-86.8-55.4L353,517l-14.1-3.5
			l7.6-162.5l-18.7-17l0,176.8L305,505l-110-82.9l8-57.1l-7-26l-5-44.5v-63h-9V294l3,46.5l5,27l-9,27.5l-10,32l-43.9,41.6l-21.4,7
			l14.9-183.9l13-11.7l-8,100.3h4.3l20-148.9h-37L90,332.8v0L77.6,484.4L0,509.2v44.4l151.1-46.2L122.5,568l15,22L119,649.8h29.4
			l10.1-71.3l-21-17.5l21.5-56l56,30l75-1l139,115.8h360.1L780,635.7z M232.1,515.5L189.9,493l12.7-19.5l91.5,41L232.1,515.5z
			 M503.3,630.1l-22-14.1l64-188.1l5,185.3L503.3,630.1z"/>
	</g>
	<g>
		<path class="st13" d="M1400,492.5V736H0V477.8C170.7,542.2,455.1,615.1,819,583C1147.3,554,1302.1,509.5,1400,492.5z"/>
		<path class="st13" d="M0,799h1400V587.1c-215.8,41.1-678.8,46.8-941-31.1c-205.1-61-365.8-36.6-459-8.9V799z"/>
		<path class="st13" d="M1400,518.2C1124.4,579.5,562.6,677.8,0,617.3V1000h1400V518.2z"/>
	</g>
	<g>
		<linearGradient id="SVGID_12_" gradientUnits="userSpaceOnUse" x1="700" y1="971.3932" x2="700" y2="475.7825">
			<stop  offset="0" style="stop-color:#022B2D"/>
			<stop  offset="0.2968" style="stop-color:#054042"/>
			<stop  offset="0.7373" style="stop-color:#09595C"/>
			<stop  offset="1" style="stop-color:#0A6266"/>
		</linearGradient>
		<path class="st14" d="M1376,596.5l-13.1-33.7l-13.1,43.7l-34.2-117.7l-31.2,119.7l-18.8-54.3l-14.8,50.7l-33.2-78.7l-34.9,80.3
			l-16.1-31.7l-18.8,32l-32.5-118.7L1071,613.5l-19.8-43.7c0,0-32.5,61.7-33.6,57.7s-11.4-37-11.4-37l-16.8,34l-26.2-73l-21.1,61
			l-16.4-27.3l-18.8,41.3l-16.1-27l-17.9,30.1c-6.4-17.5-13.3-37.6-13.3-37.6l-21.1,48.8l-16.1-16.7l-7.9,24.3H803L790.3,597
			l-10.6,51.5h-9.6L748.2,584l-18.3,64.5h-30.1l-16.1-47.4l-13.5,47.4h-32.1L616,583l-18.6,65.5h-40.7l-37.3-97.6l-24.1,48.9
			l-35.6-111.4l-37.1,111.4l-19.8-72l-22.1,75.9l-22-30.3l-18.4,29.4l-23.7-60.3l-25.9,55.8l-21.4-24.7l-19.9,23.2l-24.4-41
			l-28.9,44.8l-12.8-12.7L169,609.3l-18.6-52.8l-21.7,61.4l-19.6-74.8L90.7,574l-21.4-51.6L43,593.3L25.3,541L8.4,579.3L0,565.4
			v433.1h1400V536.1L1376,596.5z"/>
		<linearGradient id="SVGID_13_" gradientUnits="userSpaceOnUse" x1="700.0524" y1="1119.5" x2="700.0524" y2="763.4987">
			<stop  offset="0" style="stop-color:#A7EDF9"/>
			<stop  offset="0.1187" style="stop-color:#A0EBF8"/>
			<stop  offset="0.2861" style="stop-color:#8EE4F5"/>
			<stop  offset="0.4823" style="stop-color:#70D8F0"/>
			<stop  offset="0.7005" style="stop-color:#46C8E9"/>
			<stop  offset="0.9341" style="stop-color:#10B4E0"/>
			<stop  offset="1" style="stop-color:#00AEDD"/>
		</linearGradient>
		<polygon class="st15" points="1400,851.1 1265,849.9 1300.1,806.1 1189.1,794.1 1210.1,746.1 930.8,746.1 996.8,674.1 
			498.8,674.1 561.8,737.1 180.8,758.1 131.6,845.1 0.1,845.1 0.8,998.5 1400,998.5 		"/>
		<g class="st16">
			<linearGradient id="SVGID_14_" gradientUnits="userSpaceOnUse" x1="570.4299" y1="1095.3817" x2="570.4299" y2="655.0162">
				<stop  offset="0" style="stop-color:#FFFFFF"/>
				<stop  offset="1" style="stop-color:#FFFFFF"/>
			</linearGradient>
			<path class="st17" d="M1140.9,853.8L28.1,905.1c0,0,470.7,32.8,461.7,32.8s-306,36-306,36l41.3,24.6l2.5,1.5H0v-1.5h97l-70-27
				l124-29L0.5,933.6l-0.5,0v-74.1l0.2,0l192.8-8l-61.1-6.9l6.5-11.5L1140.9,853.8z"/>
			<linearGradient id="SVGID_15_" gradientUnits="userSpaceOnUse" x1="670.3699" y1="887.6682" x2="670.3699" y2="633.8406">
				<stop  offset="0" style="stop-color:#FFFFFF"/>
				<stop  offset="1" style="stop-color:#FFFFFF"/>
			</linearGradient>
			<path class="st18" d="M1202.1,764.2l-1.8,4.1l-1014.7,9.3l169.2,22.3l-216.2,32.8l37.8-67h0c31-5.1,54.6-8.9,56.5-8.9
				c0.9,0-5.2-0.3-16.1-0.8l345.6-19.6l-25.5,1.9L1202.1,764.2z"/>
			<linearGradient id="SVGID_16_" gradientUnits="userSpaceOnUse" x1="984.5023" y1="1161.3854" x2="984.5023" y2="416.2894">
				<stop  offset="0" style="stop-color:#FFFFFF"/>
				<stop  offset="1" style="stop-color:#FFFFFF"/>
			</linearGradient>
			<polygon class="st19" points="1400,1000 1400,906.2 569,925 1317.9,952.9 1273.6,1000 			"/>
			<linearGradient id="SVGID_17_" gradientUnits="userSpaceOnUse" x1="764.365" y1="935.8828" x2="764.365" y2="566.2712">
				<stop  offset="0" style="stop-color:#FFFFFF"/>
				<stop  offset="1" style="stop-color:#FFFFFF"/>
			</linearGradient>
			<polygon class="st20" points="979.5,693 966.8,706.8 549.2,700.8 			"/>
			<linearGradient id="SVGID_18_" gradientUnits="userSpaceOnUse" x1="1035.5299" y1="1090.3021" x2="1035.5299" y2="493.2039">
				<stop  offset="0" style="stop-color:#FFFFFF"/>
				<stop  offset="1" style="stop-color:#FFFFFF"/>
			</linearGradient>
			<path class="st21" d="M1300.1,806.1l-12.3,15.4L771,801c0,0,250.4-2.3,444.6-4.1L1300.1,806.1z"/>
			<linearGradient id="SVGID_19_" gradientUnits="userSpaceOnUse" x1="1319.5673" y1="1161.3854" x2="1319.5673" y2="416.2894">
				<stop  offset="0" style="stop-color:#FFFFFF"/>
				<stop  offset="1" style="stop-color:#FFFFFF"/>
			</linearGradient>
			<polygon class="st22" points="1400.2,872.9 1238.9,870.6 1400.2,856.2 			"/>
		</g>
	</g>
</g>
</svg>
