<?xml version="1.0" encoding="utf-8"?>
<!-- Generator: Adobe Illustrator 26.2.1, SVG Export Plug-In . SVG Version: 6.00 Build 0)  -->
<svg version="1.1" id="Layer_1" xmlns="http://www.w3.org/2000/svg" xmlns:xlink="http://www.w3.org/1999/xlink" x="0px" y="0px"
	 viewBox="0 0 1289.3 732.4" style="enable-background:new 0 0 1289.3 732.4;" xml:space="preserve">
<style type="text/css">
	.st0{fill:#1DA1F2;}
</style>
<g id="a">
</g>
<g id="b">
	<g id="c">
		<g id="d">
			<path class="st0" d="M585.6,386.4c5.9-6.2,11.5-12.8,16.7-19.8l0.1,0.1l29.5-39.1l12-15.9l34.1-45.2l23.2-30.8l46-61.1l22.3-29.6
				l40.2-53.3h388.1L1289.3,0H764l-16.8,22.4l-22.6,30L695,91.5L669,126.2h-0.1l-29.5,39.1c-13.3-46-41-88.2-82.2-119.2
				C516,15,467.6-0.1,419.6,0H0l69,91.5h350.6c28.8-0.1,57.9,9,82.6,27.6c60.6,45.7,72.7,131.8,27,192.4
				c-27,35.8-68.1,54.7-109.8,54.7H275.8l5,6.5l0.2,0.3l63.8,84.7l137,181.8l12.6,16.7l57.3,76.1l0.1,0.1l57.3-76.1l287.5-381.6
				h170.7l68.9-91.5H850.9l-24,31.8v0.1L782,274.6l-55.6,73.7h-0.1L616.7,493.9l-0.5,0.8l-0.5,0.6l-64,84.9l-24.4-32.5l-67.8-89.9
				l-2.4-3.1c35.7-5.9,70.1-20.3,99.8-42.6C567.1,404.4,576.7,395.8,585.6,386.4L585.6,386.4z"/>
			<path class="st0" d="M465.3,228.9c0-25.3-20.5-45.8-45.7-45.8H137.9l68.9,91.5h212.7C444.8,274.6,465.3,254.1,465.3,228.9z"/>
		</g>
	</g>
</g>
</svg>
